<?xml version="1.0" standalone="no"?>
<!DOCTYPE svg PUBLIC "-//W3C//DTD SVG 20010904//EN"
 "http://www.w3.org/TR/2001/REC-SVG-20010904/DTD/svg10.dtd">
<svg version="1.0" xmlns="http://www.w3.org/2000/svg"
 width="128.000000pt" height="128.000000pt" viewBox="0 0 128.000000 128.000000"
 preserveAspectRatio="xMidYMid meet">

<g transform="translate(0.000000,128.000000) scale(0.100000,-0.100000)"
fill="#000000" stroke="none">
<path d="M256 1265 c-109 -30 -212 -135 -241 -246 -21 -78 -21 -680 0 -758 30
-114 132 -216 246 -246 78 -21 680 -21 758 0 114 30 216 132 246 246 21 78 21
680 0 758 -30 114 -132 216 -246 246 -75 20 -690 20 -763 0z m784 -131 c72
-40 116 -109 125 -197 4 -34 5 -192 3 -352 l-3 -290 -31 -55 c-40 -72 -109
-116 -197 -125 -34 -4 -192 -5 -352 -3 l-290 3 -55 31 c-72 40 -116 109 -125
197 -4 34 -5 193 -3 352 l3 290 31 55 c34 61 97 108 162 121 20 4 181 7 357 6
l320 -2 55 -31z"/>
<path d="M963 1062 c-26 -4 -63 -47 -63 -73 0 -69 74 -111 128 -73 74 51 25
161 -65 146z"/>
<path d="M549 955 c-149 -48 -251 -197 -236 -343 7 -71 57 -171 104 -213 130
-113 316 -113 446 0 20 18 51 63 69 99 81 163 16 353 -147 433 -77 38 -166 47
-236 24z m186 -123 c75 -37 117 -105 117 -192 0 -124 -88 -212 -212 -212 -124
0 -212 88 -212 212 0 161 163 263 307 192z"/>
</g>
</svg>
