<?xml version="1.0" standalone="no"?>
<!DOCTYPE svg PUBLIC "-//W3C//DTD SVG 20010904//EN"
 "http://www.w3.org/TR/2001/REC-SVG-20010904/DTD/svg10.dtd">
<svg version="1.0" xmlns="http://www.w3.org/2000/svg"
 width="512.000000pt" height="512.000000pt" viewBox="0 0 512.000000 512.000000"
 preserveAspectRatio="xMidYMid meet">

<g transform="translate(0.000000,512.000000) scale(0.100000,-0.100000)"
fill="#000000" stroke="none">
<path d="M2430 4493 c-333 -25 -658 -134 -930 -313 -121 -79 -173 -122 -288
-234 -230 -224 -393 -483 -491 -782 -200 -609 -87 -1269 307 -1789 67 -88 235
-258 327 -330 460 -360 1035 -497 1598 -380 537 111 1000 446 1283 927 231
392 314 889 223 1343 -74 371 -240 690 -504 963 -229 238 -488 402 -794 502
-229 75 -504 110 -731 93z m189 -268 c86 -44 206 -234 275 -434 34 -98 76
-247 76 -270 0 -8 -122 -11 -410 -11 -327 0 -410 3 -410 13 0 28 72 260 109
351 52 128 100 212 158 276 79 88 136 109 202 75z m-499 -51 c0 -3 -11 -24
-24 -47 -59 -102 -156 -378 -196 -559 l-13 -58 -354 0 c-194 0 -353 3 -353 7
0 19 123 163 218 255 171 164 371 290 592 369 104 38 130 44 130 33z m976 -20
c250 -83 490 -238 679 -435 77 -82 165 -189 165 -202 0 -4 -159 -7 -354 -7
l-355 0 -11 58 c-35 166 -136 456 -196 559 -37 64 -38 64 72 27z m-1256 -911
c0 -5 -7 -62 -15 -128 -8 -66 -18 -178 -21 -250 -3 -71 -7 -140 -10 -152 l-4
-23 -455 0 -455 0 6 43 c23 171 50 279 106 435 l30 82 409 0 c225 0 409 -3
409 -7z m1185 -5 c8 -23 34 -290 41 -420 l7 -128 -513 0 -513 0 7 128 c7 125
33 395 41 420 3 9 105 12 465 12 359 0 462 -3 465 -12z m1098 -58 c52 -134 94
-305 110 -448 l5 -42 -456 2 -457 3 -7 145 c-4 80 -14 203 -22 272 -9 69 -16
129 -16 132 0 3 184 6 408 6 l408 0 27 -70z m-2329 -772 c3 -13 7 -81 10 -153
3 -71 13 -184 21 -250 8 -66 15 -123 15 -127 0 -5 -184 -8 -409 -8 -380 0
-409 1 -416 18 -63 161 -106 328 -129 500 l-6 42 455 0 455 0 4 -22z m1272
-105 c-7 -130 -33 -384 -42 -415 -5 -17 -36 -18 -465 -18 -359 0 -461 3 -464
13 -7 20 -33 291 -41 425 l-7 122 513 0 513 0 -7 -127z m1167 85 c-16 -148
-65 -337 -128 -500 -7 -17 -36 -18 -416 -18 -225 0 -409 3 -409 8 0 4 7 61 15
127 9 66 18 183 21 260 3 77 7 146 10 153 3 9 103 12 458 12 l454 0 -5 -42z
m-2333 -835 c35 -169 136 -457 197 -561 13 -24 22 -46 20 -49 -9 -9 -167 47
-277 99 -153 72 -315 184 -441 306 -96 92 -219 236 -219 255 0 4 159 7 354 7
l355 0 11 -57z m1070 46 c0 -26 -72 -262 -104 -341 -62 -152 -107 -229 -180
-306 -97 -102 -162 -98 -268 16 -65 71 -140 212 -192 361 -34 98 -76 247 -76
270 0 8 122 11 410 11 285 0 410 -3 410 -11z m970 4 c0 -19 -123 -163 -218
-255 -117 -113 -270 -222 -413 -293 -94 -48 -296 -121 -305 -112 -4 3 3 21 14
39 59 96 157 370 197 551 l17 77 354 0 c195 0 354 -3 354 -7z"/>
</g>
</svg>
