<?xml version="1.0" standalone="no"?>
<!DOCTYPE svg PUBLIC "-//W3C//DTD SVG 20010904//EN"
 "http://www.w3.org/TR/2001/REC-SVG-20010904/DTD/svg10.dtd">
<svg version="1.0" xmlns="http://www.w3.org/2000/svg"
 width="500.000000pt" height="500.000000pt" viewBox="0 0 500.000000 500.000000"
 preserveAspectRatio="xMidYMid meet">

<g transform="translate(0.000000,500.000000) scale(0.100000,-0.100000)"
fill="#000000" stroke="none">
<path d="M3201 4429 c-337 -72 -622 -301 -767 -614 -63 -136 -87 -249 -88
-411 l-1 -142 -35 5 c-476 62 -847 196 -1210 438 -206 137 -363 275 -551 483
-67 74 -78 82 -110 82 -55 0 -87 -32 -136 -137 -158 -333 -127 -740 79 -1041
17 -24 28 -45 26 -47 -2 -2 -23 5 -47 16 -58 26 -93 24 -129 -6 -40 -34 -44
-58 -32 -181 31 -301 168 -550 418 -754 l42 -35 -32 -2 c-23 -2 -42 -12 -62
-34 -24 -27 -28 -38 -23 -75 6 -61 95 -237 167 -332 129 -172 324 -311 528
-377 51 -17 52 -18 32 -32 -45 -31 -250 -123 -350 -156 -222 -74 -443 -103
-697 -92 l-163 7 -30 -30 c-36 -37 -40 -86 -10 -125 21 -27 172 -118 308 -186
948 -475 2157 -378 2994 241 554 409 948 1015 1113 1713 42 176 66 357 72 552
l6 182 107 90 c59 50 136 124 171 164 205 231 240 299 185 364 -30 35 -77 36
-191 5 -43 -11 -80 -20 -81 -19 -2 1 22 40 52 87 67 105 118 231 109 271 -8
36 -58 79 -92 79 -14 0 -75 -25 -135 -56 -133 -67 -251 -113 -380 -149 l-97
-26 -68 55 c-127 103 -265 174 -423 218 -113 31 -343 35 -469 7z m397 -195
c157 -32 286 -98 426 -218 51 -44 97 -76 110 -76 31 0 209 47 305 80 47 17 86
28 89 26 8 -9 -155 -164 -215 -205 -69 -46 -83 -65 -83 -111 0 -42 15 -67 51
-86 37 -18 76 -14 199 23 47 14 97 29 113 34 l27 8 -21 -27 c-25 -32 -130
-127 -217 -195 -34 -27 -64 -59 -66 -70 -3 -12 -7 -114 -10 -227 -7 -285 -46
-511 -133 -775 -298 -901 -986 -1560 -1858 -1778 -570 -143 -1154 -108 -1683
99 -67 27 -122 51 -122 55 0 3 31 9 70 13 297 27 660 159 920 333 135 91 153
110 153 164 0 35 -6 48 -30 69 -25 23 -42 28 -109 33 -219 17 -406 108 -565
273 -54 57 -139 171 -139 187 0 2 39 7 87 10 138 9 228 33 258 69 32 38 33 88
3 123 -16 17 -47 32 -97 46 -88 24 -201 75 -266 119 -123 84 -244 230 -306
365 -28 62 -74 213 -67 220 2 2 41 -8 88 -21 48 -15 125 -28 177 -31 l92 -6
30 31 c24 23 31 39 31 68 0 33 -7 44 -46 78 -182 160 -247 236 -309 367 -59
125 -78 214 -78 369 -1 119 3 145 27 225 15 49 29 91 32 94 2 2 63 -54 136
-125 483 -471 1097 -755 1758 -813 101 -9 119 -8 150 7 49 24 56 52 40 171
-15 116 -9 276 16 366 22 83 85 215 138 289 55 77 175 190 249 234 82 50 203
99 282 116 94 20 267 20 363 0z"/>
</g>
</svg>
